<?xml version="1.0" encoding="utf-8"?>
<!-- Generator: Adobe Illustrator 23.0.1, SVG Export Plug-In . SVG Version: 6.00 Build 0)  -->
<svg version="1.1" id="Layer_1" xmlns="http://www.w3.org/2000/svg" xmlns:xlink="http://www.w3.org/1999/xlink" x="0px" y="0px"
	 viewBox="0 0 125 90" style="enable-background:new 0 0 125 90;" xml:space="preserve">
<style type="text/css">
	.st0{fill:#5C0F8B;}
	.st1{fill:#9578D3;}
</style>
<g>
	<g id="XMLID_736_">
		<g id="XMLID_738_">
			<g id="XMLID_761_">
				<path id="XMLID_769_" class="st0" d="M0.6,45.2c0-1.5-0.1-2.6-0.1-3.5c0-0.9,0-1.6-0.1-2.2c0-0.6-0.1-1-0.1-1.3
					c5.9,0,8.9,2.8,8.9,8.5l0.1,18.5c0,3.2,0.1,5.8,0.4,8c0.3,2.1,0.8,3.9,1.7,5.2c0.8,1.3,2.1,2.2,3.6,2.8c1.6,0.6,3.7,0.8,6.3,0.8
					c1.2,0,2.3,0,3.3,0c1,0,1.8-0.1,2.5-0.1c0.8,0,1.5-0.1,2.2-0.2v0.4c0,0.8-0.2,1.6-0.5,2.4c-0.4,0.9-0.9,1.6-1.7,2.3
					c-0.8,0.7-1.7,1.3-2.8,1.7c-1.1,0.5-2.5,0.7-4.1,0.7c-3.9,0-7.1-0.4-9.6-1.2c-2.5-0.8-4.5-2.2-6-4c-1.5-1.9-2.5-4.4-3.1-7.6
					c-0.6-3.1-0.9-7-0.9-11.6V45.2z"/>
				<path id="XMLID_767_" class="st0" d="M63.9,82.2c0,1.5,0,2.7,0,3.6c0,0.9,0.1,1.7,0.1,2.2c0,0.6,0.1,1,0.1,1.3
					c-3,0-5.2-0.6-6.8-1.9c-1.6-1.2-2.4-3.3-2.4-6.2l-0.1-29.7c0-3.4,0.5-6,1.6-7.8c0.5-1,1.2-1.8,1.9-2.3c0.7-0.6,1.5-1.1,2.5-1.5
					c0.6-0.2,1.3-0.5,2-0.6c0.7-0.2,1.4-0.3,2.2-0.4c1-0.1,2.1-0.2,3.2-0.2c1.1,0,2.3-0.1,3.5-0.1h6.4c3.1,0,5.3,0,6.7-0.1
					c1.4-0.1,3.2-0.2,3.2-0.2v0.4c0,1.7-0.3,2.9-0.9,3.9c-0.5,1-1.2,1.7-2.2,2.3c-0.9,0.5-1.9,0.8-3,0.9c-1.1,0.1-2.2,0.1-3.3,0.1
					H66.1c-0.5,0-0.9,0.2-1.2,0.4c-0.3,0.1-0.5,0.3-0.7,0.6c-0.3,0.5-0.4,1.3-0.4,2.4l0.1,8.9h18c0,2.2-0.6,3.9-1.8,5.3
					c-1.2,1.3-2.9,2-5.2,2h-11L63.9,82.2z"/>
				<path id="XMLID_765_" class="st0" d="M124.4,81.6v0.5c0,1.7-0.3,2.9-0.9,3.9c-0.5,1-1.2,1.7-2.3,2.2c-0.9,0.5-2,0.8-3.2,0.9
					c-1.2,0.1-2.3,0.1-3.2,0.2c-4.4,0.2-8.2,0-11.4-0.7c-3.2-0.7-5.8-1.9-7.8-3.8c-2.1-1.8-3.6-4.4-4.6-7.6c-1-3.2-1.5-7.2-1.5-12
					V51.5c0-3.3,0.5-5.9,1.5-7.8c0.5-1,1.2-1.8,1.9-2.3c0.7-0.6,1.6-1.1,2.5-1.5c0.6-0.2,1.3-0.5,2-0.6c0.7-0.2,1.4-0.3,2.2-0.4
					c1-0.1,2.1-0.2,3.2-0.2c1.1,0,2.3-0.1,3.5-0.1h6.4c3.1,0,5.3,0,6.7-0.1c1.4-0.1,2.2-0.2,2.6-0.2h0.1h0.4v0.4
					c0,1.7-0.3,2.9-0.9,3.9c-0.5,0.9-1.3,1.7-2.3,2.3c-1,0.5-2,0.8-3.1,0.9c-1.1,0.1-2.2,0.1-3.3,0.1h-12.3c-0.3,0-0.5,0.1-0.7,0.1
					c-0.2,0-0.4,0.1-0.5,0.2c-0.3,0.1-0.5,0.3-0.7,0.6c-0.2,0.2-0.3,0.6-0.4,1c0,0.4-0.1,0.9-0.1,1.4l0.2,8.9h17.9
					c0,2.2-0.6,3.9-1.8,5.3c-1.2,1.3-2.9,2-5.2,2h-11c-0.1,3.3,0.1,6,0.7,8.1c0.5,2.2,1.4,3.9,2.6,5.1c1.2,1.3,2.7,2.2,4.6,2.7
					c1.9,0.5,4.2,0.8,6.9,0.8c3.1,0,5.6,0,7.3-0.1c1.7-0.1,2.8-0.2,3.2-0.2h0.1L124.4,81.6z"/>
				<g id="XMLID_763_">
					<path id="XMLID_764_" class="st0" d="M28.5,49c0.3-1.1,0.9-2.1,1.7-3.1c0.9-1,2.2-1.5,4.1-1.6c1.8-0.2,3.4,0,4.7,0.6
						c1.3,0.6,2.5,1.3,3.4,2.3c0.9,1,1.6,2.2,2,3.5c0.4,1.4,0.7,2.8,0.7,4.2l0.1,23.5c0,3.5-0.9,6.1-2.8,7.6
						c-1.9,1.5-4.6,2.3-8.2,2.3c0.1-0.4,0.1-1,0.2-1.7c0.1-0.6,0.1-1.5,0.1-2.6c0-1.1,0-2.5,0-4.3L34.4,56c0-1.4-0.3-2.4-0.8-3
						c-0.5-0.6-1.1-1-1.8-1.1c-0.7-0.1-1.4,0-2.1,0.2c-0.7,0.3-1.2,0.6-1.5,1C28.1,51.6,28.2,50.2,28.5,49z"/>
				</g>
				<path id="XMLID_762_" class="st1" d="M28.2,53.1c0,0-1-7.7,5.1-9.1c6.1-1.4,12,2.5,12,8.5c0,6,0,23.5,0,23.5s-0.4-15.4-5.2-21.4
					C35.3,48.6,29.4,51,28.2,53.1z"/>
			</g>
			<g id="XMLID_739_">
				<path id="XMLID_760_" class="st0" d="M4.5,14c-2.9-2.6,0-4.7,0-4.7c4.1-1.9,6.7,0.9,6.7,0.9c0.1-1.6,1-2.6,1-2.6
					C5.3,5.4,0.5,8,0.5,12.2s4,5.1,6.6,6c2.6,0.9,2.6,2.1,2.6,3c0,0.8-0.6,3.1-4.1,3.1c-3.5,0-4.9-1.7-4.9-1.7
					c0,1.9-0.7,3.2-0.7,3.2s2.4,0.8,6.3,0.6c3.9-0.2,6.7-2.5,6.1-6.7C11.7,15.3,7.2,16.5,4.5,14z"/>
				<path id="XMLID_757_" class="st0" d="M23.2,6.7c0,0-8.5-0.6-8.5,9.6c0,10.2,7.6,9.9,8.4,9.9c0.8,0,8.4,0.4,8.4-9.7
					C31.5,6.4,24.3,6.7,23.2,6.7z M23.1,24.5c-0.5,0-5.2,0.3-5.2-8.1c0-8.4,5.3-7.9,5.3-7.9c0.7,0,5.1-0.2,5.1,8.1
					C28.3,24.8,23.6,24.5,23.1,24.5z"/>
				<path id="XMLID_754_" class="st0" d="M72,6.7c0,0-8.5-0.6-8.5,9.6c0,10.2,7.6,9.9,8.4,9.9c0.8,0,8.4,0.4,8.4-9.7
					C80.2,6.4,73.1,6.7,72,6.7z M71.9,24.5c-0.5,0-5.2,0.3-5.2-8.1c0-8.4,5.3-7.9,5.3-7.9c0.7,0,5.1-0.2,5.1,8.1
					C77,24.8,72.4,24.5,71.9,24.5z"/>
				<path id="XMLID_753_" class="st0" d="M36.3,4.6c0,0-0.4,0.7-0.2,4.3L33,8.6v2.4l3.1-0.2L36,24.2c0,0,0,1.3-0.3,1.8h3.6
					c0,0-0.4-1-0.4-2.4V10.8l3.3,0.1V8.7l-3.4,0.1V5.9c0,0-0.2-2.7,1.9-3.2c0,0,0.4-0.3,2-0.1c0,0,0.2-1.9,0.6-2.3
					C43.5,0.4,37.4,0.2,36.3,4.6z"/>
				<path id="XMLID_752_" class="st0" d="M53.2,26.1c-0.2-1.1,0.1-2.3,0.1-2.3c-0.4,0.2-1.7,0.2-1.7,0.2c-2.3-0.1-2-2.9-2-2.9V10.9
					c0.8-0.1,3.3,0.1,3.3,0.1c-0.1-0.5,0-2.2,0-2.2c-1,0.3-3.3,0.2-3.3,0.2c0-3.3,0.2-7.1,0.2-7.1c-1.3,1-3.5,1.3-3.5,1.3
					c0.6,0.5,0.5,5.9,0.5,5.9c-0.5,0-2.9-0.1-2.9-0.1c0.1,0.3,0,2.2,0,2.2c0.7-0.2,2.9-0.2,2.9-0.2l0.1,12c0.3,3.1,2.3,3.2,2.7,3.1
					C49.9,26,53.2,26.1,53.2,26.1z"/>
				<path id="XMLID_751_" class="st0" d="M59.7,0.3c-1.3,0.8-3.7,1.2-4.3,1.3c0.3,0.1,0.6,0.8,0.8,1.8c0.7,3.2,0.5,9.6,0.5,9.6
					c0,2.4,0,4.5-0.1,6.1c0,6.1-0.8,6.9-0.8,6.9c1.5-0.7,3.7-0.1,4.2,0C58.5,19.5,59.7,0.3,59.7,0.3z"/>
				<path id="XMLID_747_" class="st0" d="M100.2,9.8c0,0-0.3-1.8-0.1-2.2c0,0-3.1,0.5-4.5,0.4c0,0-6.3-3.5-10.8,0.9
					c0,0-3.8,5.6,1.5,9.1c0,0-3.9,1.6-3.7,4.1c0.2,2.5,3.7,2.9,3.7,2.9s-4,1.8-4,5c-0.1,3.2,4.2,4.5,8,4.4c3.8-0.1,8.6-1.8,9.1-5.9
					c0.5-4.1-1.9-5.2-3.6-5.5c-1.6-0.3-6.5-0.4-6.5-0.4s-5.2,0-3.3-2.7c0,0,0.5-1,1.6-1.3c0,0,7,1.9,9.1-3.4c0,0,1.1-2.9-0.2-5.6
					C96.7,9.6,96.5,9.4,100.2,9.8z M88,25.1c0,0,4.8-0.1,6.7,0.4c1.9,0.5,2.4,1.6,2.4,3.2c0,1.6-2.1,4.3-6.7,4.1
					c-4.6-0.2-4.9-2.4-4.9-2.4C84.5,26.9,88,25.1,88,25.1z M90.4,17.2c-0.4,0-3.9,0.2-3.9-4.7c0-4.8,3.9-4.5,3.9-4.5
					c0.5,0,3.8-0.1,3.8,4.6C94.3,17.4,90.8,17.2,90.4,17.2z"/>
				<g id="XMLID_741_">
					<g>
						<path id="XMLID_17_" class="st0" d="M106.9,6.4c-1.6,1-4.2,0.8-4.2,0.8c0.9,1.4,1.1,1,1.1,9.3c-0.1,8.2-0.5,9.3-0.6,9.5
							c1.6-0.6,4.1,0,4.1,0c-0.6-1.7-0.7-5.3-0.7-9C106.5,13.4,106.9,6.4,106.9,6.4z"/>
						<path id="XMLID_16_" class="st0" d="M105,4.4c1,0,1.8-0.8,1.8-1.8c0-1-0.8-1.8-1.8-1.8c-1,0-1.8,0.8-1.8,1.8
							C103.2,3.6,104,4.4,105,4.4z"/>
					</g>
				</g>
				<path id="XMLID_740_" class="st0" d="M120.1,24.5c-6.5-0.4-6.2-8.5-6.2-8.5c-0.2-3.2,1.7-7.2,5.2-7.6c3.5-0.4,4.5,1.7,4.5,1.7
					c0.1-1.1,0.7-2.6,0.7-2.6c-2.4-0.9-6.6-1.7-10.4,0.9c-3.8,2.6-4.4,13.1-0.3,16.1c4.2,2.9,9.8,1.4,9.8,1.4
					c-0.1-1.1,0.5-2.3,0.5-2.3C122.5,24.7,120.1,24.5,120.1,24.5z"/>
			</g>
		</g>
		<path id="XMLID_737_" class="st0" d="M45.2,35.5c0-3.2-2.6-5.8-5.8-5.8c-3.2,0-5.8,2.6-5.8,5.8c0,3.2,2.6,5.8,5.8,5.8
			C42.6,41.3,45.2,38.7,45.2,35.5z"/>
	</g>
</g>
</svg>
